<mxfile host="app.diagrams.net" modified="2024-05-16T13:47:06.401Z" agent="Mozilla/5.0 (Windows NT 10.0; Win64; x64) AppleWebKit/537.36 (KHTML, like Gecko) Chrome/124.0.0.0 Safari/537.36" version="22.1.15" etag="Wo-djbtph4BFil-P4R6J" type="github">
  <diagram name="Page-1" id="5JnIsuwvR80fRq2SEBZZ">
    <mxGraphModel>
      <root>
        <mxCell id="0" />
        <mxCell id="1" parent="0" />
      </root>
    </mxGraphModel>
  </diagram>
</mxfile>
